HIERARCHY
ROOT Hips
{
  OFFSET 46.4214 83.9301 17.5138
  CHANNELS 6 Xposition Yposition Zposition Zrotation Xrotation Yrotation
  JOINT spine
  {
    OFFSET 0 6.2448 0.359107
    CHANNELS 3 Zrotation Xrotation Yrotation
    JOINT spine1
    {
      OFFSET 0 9.06941 0
      CHANNELS 3 Zrotation Xrotation Yrotation
      JOINT spine2
      {
        OFFSET 0 8.69014 0
        CHANNELS 3 Zrotation Xrotation Yrotation
        JOINT Neck
        {
          OFFSET 0 22.3112 1.06372
          CHANNELS 3 Zrotation Xrotation Yrotation
          JOINT Head
          {
            OFFSET 0 6.74081 0
            CHANNELS 3 Zrotation Xrotation Yrotation
            End Site
            {
              OFFSET 0 16.3165 -5.38097
            }
          }
        }
        JOINT RightShoulder
        {
          OFFSET -3.65916 9.38468 -0.509514
          CHANNELS 3 Zrotation Xrotation Yrotation
          JOINT RightArm
          {
            OFFSET 0 12.3089 0
            CHANNELS 3 Zrotation Xrotation Yrotation
            JOINT RightArmRoll
            {
              OFFSET 0 6.21375 0
              CHANNELS 3 Zrotation Xrotation Yrotation
              JOINT RightForeArm
              {
                OFFSET 0 18.0985 0
                CHANNELS 3 Zrotation Xrotation Yrotation
                JOINT RightForeArmRoll
                {
                  OFFSET 0 6.97279 0
                  CHANNELS 3 Zrotation Xrotation Yrotation
                  JOINT RightHand
                  {
                    OFFSET 0 13.9929 0
                    CHANNELS 3 Zrotation Xrotation Yrotation
                    End Site
                    {
                      OFFSET 0 0 0
                    }
                  }
                }
              }
            }
          }
        }
        JOINT LeftShoulder
        {
          OFFSET 3.65916 9.38468 -0.509514
          CHANNELS 3 Zrotation Xrotation Yrotation
          JOINT LeftArm
          {
            OFFSET 0 12.3089 0
            CHANNELS 3 Zrotation Xrotation Yrotation
            JOINT LeftArmRoll
            {
              OFFSET 0 6.21375 0
              CHANNELS 3 Zrotation Xrotation Yrotation
              JOINT LeftForeArm
              {
                OFFSET 0 18.0985 0
                CHANNELS 3 Zrotation Xrotation Yrotation
                JOINT LeftForeArmRoll
                {
                  OFFSET 0 6.97279 0
                  CHANNELS 3 Zrotation Xrotation Yrotation
                  JOINT LeftHand
                  {
                    OFFSET 0 13.9929 0
                    CHANNELS 3 Zrotation Xrotation Yrotation
                    End Site
                    {
                      OFFSET 0 0 0
                    }
                  }
                }
              }
            }
          }
        }
      }
    }
  }
  JOINT RightUpLeg
  {
    OFFSET -5.53516 -1.015 -0.851454
    CHANNELS 3 Zrotation Xrotation Yrotation
    JOINT RightUpLegRoll
    {
      OFFSET 0 16.4075 0
      CHANNELS 3 Zrotation Xrotation Yrotation
      JOINT RightLeg
      {
        OFFSET 0 -20.3181 0
        CHANNELS 3 Zrotation Xrotation Yrotation
        JOINT RightLegRoll
        {
          OFFSET 0 20.3846 0
          CHANNELS 3 Zrotation Xrotation Yrotation
          JOINT RightFoot
          {
            OFFSET 0 16.9668 0
            CHANNELS 3 Zrotation Xrotation Yrotation
            JOINT RightToeBase
            {
              OFFSET 0 14.1834 0
              CHANNELS 3 Zrotation Xrotation Yrotation
              End Site
              {
                OFFSET 0.0060118 6.86889 -0.791746
              }
            }
          }
        }
      }
    }
  }
  JOINT LeftUpLeg
  {
    OFFSET 5.53516 -1.015 -0.851454
    CHANNELS 3 Zrotation Xrotation Yrotation
    JOINT LeftUpLegRoll
    {
      OFFSET 0 16.4076 0
      CHANNELS 3 Zrotation Xrotation Yrotation
      JOINT LeftLeg
      {
        OFFSET 0 20.3181 0
        CHANNELS 3 Zrotation Xrotation Yrotation
        JOINT LeftLegRoll
        {
          OFFSET 0 20.5731 0
          CHANNELS 3 Zrotation Xrotation Yrotation
          JOINT LeftFoot
          {
            OFFSET 0 16.7783 0
            CHANNELS 3 Zrotation Xrotation Yrotation
            JOINT LeftToeBase
            {
              OFFSET 0 14.1834 0
              CHANNELS 3 Zrotation Xrotation Yrotation
              End Site
              {
                OFFSET -0.0269423 6.86889 -0.791746
              }
            }
          }
        }
      }
    }
  }
}
MOTION
Frames: 6
Frame Time: 0.00208333
46.0617 83.7198 16.3358 0.745338 -4.54842 -3.05102 -0.403103 -1.25516 0.0688621 -0.805281 1.48253 0.180559 -0.808071 3.12751 0.194158 7.35718 15.1938 -0.513398 -0.959672 -4.07144 1.88886 66.9478 0.0559006 -0.886514 129.883 48.6249 -37.6416 -4.05763e-006 -6.61887e-006 -1.13498e-005 168.419 84.8779 -173.504 -3.11253e-006 7.03691e-006 -3 8.03016 -4.95124 0.69761 -59.9515 -6.83108 4.25829 -130.729 45.0239 43.5114 1.48761e-006 -5.03698e-006 9.50313e-006 93.8721 89.3695 -88.8935 8.64171e-006 1.06752e-005 2.99999 -8.03017 -4.95107 -0.697582 176.58 4.01496 2.05727 180 7.01547e-015 178.925 179.088 19.2194 178.995 8.87516e-007 -1.14187e-006 0.351507 -23.2722 73.6845 25.6705 8.12777 25.2335 -3.4839 -176.324 -0.200187 -3.36704 4.54188e-006 -4.6773e-006 -1.22709 -0.0885588 -21.6157 0.993937 5.32729e-006 4.55902e-006 -0.882561 30.0197 76.6934 -31.6057 -8.17911 26.3836 1.95994 
46.0585 83.7177 16.3412 0.743176 -4.54233 -3.05805 -0.403074 -1.25581 0.0706805 -0.8052 1.48027 0.184076 -0.808031 3.12525 0.197676 7.3612 15.1847 -0.518824 -0.947548 -4.05251 1.88591 66.93 0.0355896 -0.89511 130.061 48.6298 -38.2715 -4.05763e-006 -6.61887e-006 -1.13498e-005 168.637 84.8863 -173.783 -3.11253e-006 7.03691e-006 -3 8.03016 -4.95124 0.69761 -59.9174 -6.84255 4.26389 -130.951 44.9767 44.0555 1.48761e-006 -5.03698e-006 9.50313e-006 76.7501 89.4153 -71.7696 8.64171e-006 1.06752e-005 2.99999 -8.03017 -4.95107 -0.697582 176.576 4.01907 2.06905 180 7.01547e-015 178.925 179.073 19.2197 178.999 8.87516e-007 -1.14187e-006 0.352275 -23.291 73.6855 25.6749 8.12777 25.2335 -3.4839 -176.321 -0.193357 -3.37104 4.54188e-006 -4.6773e-006 -1.22704 -0.0924104 -21.6238 0.993425 5.32729e-006 4.55902e-006 -0.882713 30.0184 76.6929 -31.6045 -8.17926 26.3865 1.95611 
46.0656 83.7032 16.336 0.741003 -4.53631 -3.06517 -0.403025 -1.25647 0.0725802 -0.805077 1.47802 0.187757 -0.807952 3.123 0.201357 7.36557 15.1754 -0.524462 -0.935924 -4.03372 1.88281 66.9103 0.014747 -0.903771 130.241 48.631 -38.9147 -4.05763e-006 -6.61887e-006 -1.13498e-005 168.86 84.8948 -174.067 -3.11253e-006 7.03691e-006 -3 8.03016 -4.95124 0.69761 -59.8831 -6.8543 4.26967 -131.171 44.9278 44.6089 1.48761e-006 -5.03698e-006 9.50313e-006 57.964 89.403 -52.984 8.64171e-006 1.06752e-005 2.99999 -8.03017 -4.95107 -0.697582 176.571 4.02306 2.08052 180 7.01547e-015 178.925 179.059 19.22 179.003 8.87516e-007 -1.14187e-006 0.353054 -23.3096 73.6866 25.6795 8.12777 25.2335 -3.4839 -176.318 -0.186817 -3.3752 4.54188e-006 -4.6773e-006 -1.22698 -0.0963729 -21.6318 0.992881 5.32729e-006 4.55902e-006 -0.882858 30.0173 76.6924 -31.6035 -8.17942 26.3894 1.95229 
46.0647 83.7084 16.3415 0.738862 -4.53037 -3.07235 -0.402958 -1.25719 0.0745397 -0.804917 1.47572 0.191561 -0.807836 3.1207 0.20516 7.37062 15.1661 -0.530306 -0.925524 -4.01505 1.87958 66.8891 -0.0063398 -0.912384 130.423 48.6292 -39.5697 -4.05763e-006 -6.61887e-006 -1.13498e-005 169.087 84.9033 -174.357 -3.11253e-006 7.03691e-006 -3 8.03016 -4.95124 0.69761 -59.8492 -6.86635 4.27566 -131.39 44.8781 45.1703 1.48761e-006 -5.03698e-006 9.50313e-006 41.0313 89.3303 -36.0551 8.64171e-006 1.06752e-005 2.99999 -8.03017 -4.95107 -0.697582 176.566 4.02701 2.0914 180 7.01547e-015 178.925 179.045 19.2206 179.006 8.87516e-007 -1.14187e-006 0.353832 -23.3278 73.6878 25.6842 8.12777 25.2335 -3.4839 -176.315 -0.180507 -3.37945 4.54188e-006 -4.6773e-006 -1.22693 -0.100439 -21.6397 0.992302 5.32729e-006 4.55902e-006 -0.882996 30.0164 76.6921 -31.6027 -8.17957 26.3923 1.94852 
46.0703 83.7075 16.3486 0.7368 -4.52451 -3.07951 -0.402873 -1.258 0.0765376 -0.804719 1.47332 0.195447 -0.807685 3.1183 0.209044 7.37665 15.157 -0.536348 -0.917073 -3.99646 1.87628 66.8666 -0.0273833 -0.92084 130.607 48.6247 -40.2349 -4.05763e-006 -6.61887e-006 -1.13498e-005 169.315 84.9114 -174.649 -3.11253e-006 7.03691e-006 -3 8.03016 -4.95124 0.69761 -59.8161 -6.8787 4.28187 -131.607 44.8286 45.7381 1.48761e-006 -5.03698e-006 9.50313e-006 27.8453 89.2092 -22.8769 8.64171e-006 1.06752e-005 2.99999 -8.03017 -4.95107 -0.697582 176.563 4.03102 2.10139 180 7.01547e-015 178.925 179.032 19.2214 179.01 8.87516e-007 -1.14187e-006 0.354602 -23.3453 73.6893 25.6891 8.12777 25.2335 -3.4839 -176.312 -0.174365 -3.38378 4.54188e-006 -4.6773e-006 -1.22688 -0.1046 -21.6476 0.991686 5.32729e-006 4.55902e-006 -0.883125 30.016 76.6919 -31.6024 -8.17972 26.3951 1.94483 
46.0701 83.7117 16.3613 0.734859 -4.5187 -3.08662 -0.40277 -1.25895 0.0785524 -0.804487 1.47075 0.199374 -0.807499 3.11573 0.21297 7.38398 15.1485 -0.542581 -0.911296 -3.97792 1.87293 66.8431 -0.0480961 -0.929026 130.794 48.618 -40.9089 -4.05763e-006 -6.61887e-006 -1.13498e-005 169.544 84.919 -174.941 -3.11253e-006 7.03691e-006 -3 8.03016 -4.95124 0.69761 -59.7843 -6.89135 4.28833 -131.823 44.7801 46.3109 1.48761e-006 -5.03698e-006 9.50313e-006 18.1716 89.0541 -13.216 8.64171e-006 1.06752e-005 2.99999 -8.03017 -4.95107 -0.697582 176.559 4.03516 2.11018 180 7.01547e-015 178.925 179.021 19.2227 179.013 8.87516e-007 -1.14187e-006 0.355355 -23.3621 73.6912 25.6944 8.12777 25.2335 -3.4839 -176.309 -0.16833 -3.38814 4.54188e-006 -4.6773e-006 -1.22683 -0.10885 -21.6554 0.99103 5.32729e-006 4.55902e-006 -0.883246 30.0159 76.6919 -31.6025 -8.17986 26.3978 1.94124 
